# xmcd CD database file
#
# Track frame offsets:
#	182
#	14235
#	25445
#	40182
#	52557
#	65525
#	79232
#	93345
#	107445
#	120520
#	134155
#	149207
#	163075
#	177215
#	191395
#	204820
#	218510
#	232295
#	244430
#	255877
#	270315
#
# Disc length: 3724 seconds
#
# Revision: 1
# Processed by: cddbd v1.5.1PL0 Copyright (c) Steve Scherf et al.
# Submitted via: CDex 1.51
#
DISCID=2a0e8a15
DTITLE=Various Artist - DIXIELAND JAZZ  - THE COLLECTION
DYEAR=1900
DGENRE=Jazz
TTITLE0=TIGER RAG
TTITLE1=COPENHAGEN
TTITLE2=CARELESS LOVE
TTITLE3=THAT'S NO BARGAIN
TTITLE4='WAY DOWN YONDER IN NEW ORLEANS
TTITLE5=ROYAL GARDEN BLUES
TTITLE6=NOBODY'S SWEETHEART
TTITLE7=I'VE FOUND A NEW BABY
TTITLE8=THERE'LL BE SOM CHANGES MADE
TTITLE9=SHAKE YOUR CAN
TTITLE10=MOANIN' LOW
TTITLE11=STRUT MISS LIZZIE
TTITLE12=GEORGIA ON MY MIND
TTITLE13=GEORGIA GRIND
TTITLE14=AFTER YOU'VE GONE
TTITLE15=SPIDER CRAWL
TTITLE16=THE EEL
TTITLE17=WHEN THE SAINTS GO MARCHING IN
TTITLE18=AT THE JAZZ BAND BALL
TTITLE19=RELAXIN' AT THE TOURO
TTITLE20=MUSKRAT RAMBLE
EXTD=
EXTT0=ORIGINAL DIXIELAND JAZZ BAND
EXTT1=THE WOLVERINE ORCHESTRA
EXTT2=ORIGINAL TUXEDO JAZZ ORCHESTRA
EXTT3=RED NICHOLS and HIS 5 PENNIES
EXTT4=FRANKIE TRUMBAUER and HIS ORCHESTRA
EXTT5=BIX BEIDERBECKE AND HIS GANG
EXTT6=MCKENZIE AND CONDON'S CHICAGOANS
EXTT7=CHICAGO RHYTHM KINGS
EXTT8=CHICAGO RHYTHM KINGS
EXTT9=JOHNNY DODDS
EXTT10=MIFF MOLE'S MOLERS
EXTT11=IRVING MILLS and HIS HOSTY TOSTY GANG
EXTT12=HOAGY CARMICHAEL and HIS ORCHESTRA
EXTT13=ROY PALMER
EXTT14=VENUTI-LANG ALL STARS
EXTT15=BILLY BANKS and HIS ORCHESTRA
EXTT16=EDDIE CONDON and HIS ORCHESTRA
EXTT17=LOUIS ARMSTRONG
EXTT18=THE RHYTHM CATS
EXTT19=MUGGSY SPANIER
EXTT20=LOUIS ARMSTRONG
PLAYORDER=
